<?xml version="1.0" encoding="UTF-8" standalone="no"?>
<!-- Created with Inkscape (http://www.inkscape.org/) -->

<svg
   xmlns:dc="http://purl.org/dc/elements/1.1/"
   xmlns:cc="http://creativecommons.org/ns#"
   xmlns:rdf="http://www.w3.org/1999/02/22-rdf-syntax-ns#"
   xmlns:svg="http://www.w3.org/2000/svg"
   xmlns="http://www.w3.org/2000/svg"
   xmlns:sodipodi="http://sodipodi.sourceforge.net/DTD/sodipodi-0.dtd"
   xmlns:inkscape="http://www.inkscape.org/namespaces/inkscape"
   id="svg2"
   version="1.1"
   inkscape:version="0.91 r13725"
   xml:space="preserve"
   width="624.28094"
   height="217.39394"
   viewBox="0 0 624.28094 217.39394"
   sodipodi:docname="alena-logo.svg"><metadata
     id="metadata8"><rdf:RDF><cc:Work
         rdf:about=""><dc:format>image/svg+xml</dc:format><dc:type
           rdf:resource="http://purl.org/dc/dcmitype/StillImage" /><dc:title></dc:title></cc:Work></rdf:RDF></metadata><defs
     id="defs6" /><sodipodi:namedview
     pagecolor="#ffffff"
     bordercolor="#666666"
     borderopacity="1"
     objecttolerance="10"
     gridtolerance="10"
     guidetolerance="10"
     inkscape:pageopacity="0"
     inkscape:pageshadow="2"
     inkscape:window-width="1440"
     inkscape:window-height="797"
     id="namedview4"
     showgrid="false"
     fit-margin-top="0"
     fit-margin-left="0"
     fit-margin-right="0"
     fit-margin-bottom="0"
     inkscape:zoom="0.89707533"
     inkscape:cx="260.6445"
     inkscape:cy="94.820709"
     inkscape:window-x="0"
     inkscape:window-y="0"
     inkscape:window-maximized="1"
     inkscape:current-layer="g10" /><g
     id="g10"
     inkscape:groupmode="layer"
     inkscape:label="logo_alena"
     transform="matrix(1.25,0,0,-1.25,-214.03931,852.78649)"><path
       d="m 258.1138,608.8085 26.56,60.1733 c 1.3561,2.1427 0.8569,4.1609 -1.2676,5.3866 -6.0492,3.0827 -23.7765,4.9683 -44.877,-3.0282 -1.3983,-0.0717 -2.4936,1.8802 -0.4589,2.7195 107.278,33.8585 96.5523,-47.4567 99.1859,-63.3724 l 13.6658,-0.017 c 4.5349,-2.1099 3.1649,-5.7734 0.0862,-5.3969 l -13.1221,-0.0125 c -0.6509,-14.0941 -0.7818,-30.8968 11.5707,-27.398 16.1881,10.0352 14.9743,-2.4602 12.9833,-6.565 -4.4754,-14.6622 -15.4766,-17.6709 -28.9636,-16.0177 -3.6456,0.5652 -11.1756,1.7518 -15.7533,14.9034 l -0.6542,33.4216 -54.652,-4.1613 c -11.8785,-18.7424 -36.2262,-104.2951 -78.4513,-89.3973 -6.575,2.632 -18.504,20.9001 -9.4848,37.667 2.071,-4.9544 17.7611,-38.3204 47.3196,-3.1858 12.6922,15.0865 18.6996,32.5182 29.4262,48.9169 1.4196,2.1705 0.9264,3.9968 -0.008,4.3495 -2.4089,1.3229 -22.4085,-1.2178 -29.6669,-13.4584 l -2.6427,-0.005 8.3265,20.1934 27.9745,2.005 2.9033,2.2796 z m 36.1114,61.8786 c 31.1179,-8.6667 20.8802,-44.3965 22.6545,-60.6651 l -49.2617,-1.6725 c -1.3198,0.4068 -1.5749,2.6377 -0.3101,4.8685 l 26.9173,57.4691 z m 316.9944,-86.7424 12.5799,31.9373 c 0.6639,1.1461 0.3577,2.1881 -0.7761,2.782 -3.2193,1.4805 -12.5022,2.0883 -23.3397,-2.5251 -0.7234,-0.0695 -1.3382,0.9277 -0.2931,1.4054 55.2246,19.9256 51.3471,-22.7041 53.0555,-30.9501 l 7.1306,0.2812 c 2.4063,-1.0026 1.7711,-2.9418 0.1573,-2.8108 l -6.8434,-0.2841 c -0.0419,-7.3618 0.2438,-16.1288 6.6115,-14.0431 8.231,5.5755 7.8636,-0.968 6.9098,-3.1481 -2.0223,-7.7412 -7.6935,-9.5432 -14.7606,-8.9674 -1.9171,0.2208 -5.8683,0.6789 -8.5323,7.4426 l -1.0505,17.4121 -28.4057,-3.3225 c -5.7997,-10.0267 -16.6864,-55.1531 -39.0186,-48.2751 -3.4858,1.2313 -10.0908,10.5074 -5.7436,19.4394 1.1801,-2.5393 10.0684,-19.6041 24.7437,-0.6619 6.2977,8.1349 9.0629,17.352 14.3073,26.1315 0.6976,1.1596 0.3982,2.1036 -0.095,2.2688 -1.2832,0.6381 -11.6595,-1.1106 -15.1863,-7.647 l -1.376,-0.0587 3.9152,10.7065 14.5455,1.6387 1.4646,1.2484 z m 17.523,33.0304 c 16.4089,-3.8645 11.8278,-22.7101 13.094,-31.1548 l -25.651,-1.9145 c -0.6967,0.1851 -0.8784,1.3411 -0.2642,2.5308 l 12.8212,30.5385 z m -242.3685,37.1143 c 0.2137,2.1376 1.7535,2.1413 3.0816,1.1066 6.7521,-6.4071 14.4737,-2.5384 22.9569,3.8997 2.5277,2.1492 5.0397,0.8832 6.0318,0.5408 0.1404,-1.8207 -0.2653,-3.958 -1.891,-7.1184 -10.241,-29.7995 -18.3115,-58.3146 0.1551,-92.4548 -0.1091,-1.6871 -0.771,-3.7703 -3.2868,-3.6374 -8.8778,3.1575 -11.3077,12.6094 -35.9107,-3.1036 -1.5103,0.5978 -3.261,0.9589 -1.921,3.9208 10.2075,7.4966 24.044,61.5277 10.7841,96.8463 z m 51.086,-36.2866 c -0.009,3.3489 2.5503,3.2168 3.7012,3.0847 24.4825,-7.331 36.6208,-9.0426 58.0989,0.7302 1.5761,0.0431 2.8457,-0.9941 3.3746,-2.6397 -2.8729,-4.5578 -0.2474,-17.0416 -2.7164,-19.1619 -24.2218,-3.3208 -43.0169,5.4964 -43.2479,4.2339 -0.275,-1.5035 0.1207,-8.4031 2.4809,-9.8079 2.2853,-1.3604 10.4612,-2.5098 21.0563,0.8838 5.7594,4.8651 6.6985,-15.6744 3.2975,-14.6276 -8.6142,0.5851 -16.031,2.1433 -25.3933,-0.4901 l -0.8254,-8.9728 c 17.3245,7.3361 27.2857,6.4386 43.1883,6.6634 1.7079,-0.0357 0.5729,-5.1724 0.7008,-11.6915 0.0833,-4.2642 0.9144,-8.5813 -0.1066,-9.3651 -1.9684,-0.1996 -2.3485,-0.3226 -4.4099,0.4487 -14.4524,5.4077 -21.6252,6.38 -53.4194,-0.2021 -1.8499,-0.3829 -5.4258,-1.3558 -5.3782,2.9344 1.2461,12.0124 10.9108,16.848 -0.4014,57.9796 z m 75.9642,-1.4856 c -0.3177,4.0921 2.5878,4.5958 4.3382,4.4302 6.095,-4.9796 12.1303,-1.6591 15.7595,0.218 0.7004,0.6713 1.5811,0.6809 2.1013,0.0286 l 0.6046,-2.0247 c -0.4714,-3.2539 -1.4842,-6.3275 -2.8579,-9.2206 l 16.7843,7.8188 c 31.9969,5.5432 32.7458,-14.883 33.7802,-16.6172 l 0.2457,-6.2728 c -0.7849,-1.0554 -0.4728,-2.9721 -1.2325,-3.9081 -23.4938,-28.9472 -5.1083,-24.7318 2.0489,-16.9291 l 1.9355,-0.1752 c -2.5988,-20.5166 -36.0184,-23.6254 -25.3474,1.9454 1.489,3.46 7.2578,12.0569 8.4611,17.3719 1.749,10.5879 -7.0605,19.7492 -39.6986,-0.3399 -2.6583,-9.7393 1.5324,-19.9063 4.2967,-29.2176 l 0.6608,-4.814 c -1.5639,0.003 -3.2196,-0.5179 -4.6925,0.009 -3.0535,1.0916 -6.8437,0.9045 -10.3232,0.0192 -1.7544,-0.4464 -3.621,0.007 -5.4312,0.01 l 0.0179,5.4518 c 3.9869,6.9897 9.4008,22.2548 -1.4514,52.2165 z m 147.4549,16.0846 c 5.385,0 9.777,-4.392 9.777,-9.777 0,-5.385 -4.392,-9.7767 -9.777,-9.7767 -5.385,0 -9.7767,4.3917 -9.7767,9.7767 0,5.385 4.3917,9.777 9.7767,9.777 z m 0,-2.3579 c -4.0861,0 -7.4188,-3.3329 -7.4188,-7.4191 0,-4.0861 3.3327,-7.4191 7.4188,-7.4191 4.0862,0 7.4191,3.333 7.4191,7.4191 0,4.0862 -3.3329,7.4191 -7.4191,7.4191 z m -3.9784,-12.4115 0,9.9848 4.2426,0 c 1.067,0 1.8434,-0.091 2.327,-0.2696 0.4836,-0.1791 0.8693,-0.4977 1.1602,-0.9558 0.2903,-0.4601 0.4368,-0.9831 0.4368,-1.5735 0,-0.7489 -0.2205,-1.3672 -0.6602,-1.8553 -0.4394,-0.4881 -1.0973,-0.7974 -1.9738,-0.923 0.4349,-0.2557 0.7955,-0.5346 1.0786,-0.839 0.2838,-0.3047 0.665,-0.8442 1.1464,-1.6203 l 1.2203,-1.9483 -2.4106,0 -1.4576,2.1739 c -0.5184,0.7762 -0.8719,1.2643 -1.0624,1.4664 -0.1908,0.2027 -0.3929,0.3396 -0.6069,0.4164 -0.2137,0.0743 -0.5533,0.1117 -1.0157,0.1117 l -0.409,0 0,-4.1684 -2.0157,0 z m 2.0157,5.7629 1.4922,0 c 0.9671,0 1.5692,0.0419 1.811,0.1233 0.2395,0.0813 0.43,0.2211 0.565,0.4209 0.1369,0.1999 0.2043,0.4488 0.2043,0.7484 0,0.3373 -0.0904,0.6069 -0.2695,0.8138 -0.1792,0.2066 -0.4323,0.337 -0.7577,0.3906 -0.1653,0.023 -0.6557,0.0346 -1.4718,0.0346 l -1.5735,0 0,-2.5316 z"
       style="fill:#231f20;fill-opacity:1;fill-rule:evenodd;stroke:none"
       id="path12"
       inkscape:connector-curvature="0" /></g></svg>