<?xml version="1.0" encoding="UTF-8" standalone="no"?>
<!-- Created with Inkscape (http://www.inkscape.org/) -->

<svg
   xmlns:dc="http://purl.org/dc/elements/1.1/"
   xmlns:cc="http://creativecommons.org/ns#"
   xmlns:rdf="http://www.w3.org/1999/02/22-rdf-syntax-ns#"
   xmlns:svg="http://www.w3.org/2000/svg"
   xmlns="http://www.w3.org/2000/svg"
   xmlns:sodipodi="http://sodipodi.sourceforge.net/DTD/sodipodi-0.dtd"
   xmlns:inkscape="http://www.inkscape.org/namespaces/inkscape"
   width="79.886444mm"
   height="80.10984mm"
   viewBox="0 0 283.0622 283.85376"
   id="svg2"
   version="1.1"
   inkscape:version="0.91 r13725"
   sodipodi:docname="order-icon.svg">
  <defs
     id="defs4" />
  <sodipodi:namedview
     id="base"
     pagecolor="#ffffff"
     bordercolor="#666666"
     borderopacity="1.0"
     inkscape:pageopacity="0.0"
     inkscape:pageshadow="2"
     inkscape:zoom="0.7"
     inkscape:cx="349.42934"
     inkscape:cy="183.69344"
     inkscape:document-units="px"
     inkscape:current-layer="layer1"
     showgrid="false"
     fit-margin-top="0"
     fit-margin-left="0"
     fit-margin-right="0"
     fit-margin-bottom="0"
     inkscape:window-width="1440"
     inkscape:window-height="797"
     inkscape:window-x="0"
     inkscape:window-y="0"
     inkscape:window-maximized="1" />
  <metadata
     id="metadata7">
    <rdf:RDF>
      <cc:Work
         rdf:about="">
        <dc:format>image/svg+xml</dc:format>
        <dc:type
           rdf:resource="http://purl.org/dc/dcmitype/StillImage" />
        <dc:title></dc:title>
      </cc:Work>
    </rdf:RDF>
  </metadata>
  <g
     inkscape:label="Vrstva 1"
     inkscape:groupmode="layer"
     id="layer1"
     transform="translate(-7.6129613,-765.80461)">
    <g
       id="g4153">
      <path
         inkscape:connector-curvature="0"
         id="path4147"
         d="m 142.67426,1032.1227 c -10.71096,-3.5042 -97.993304,-43.64943 -103.182014,-47.45829 -6.27253,-4.60446 -12.4368,-13.8673 -15.130697,-22.73638 -1.81855,-5.98718 -2.05151,-8.69271 -1.62991,-18.92943 0.27054,-6.5691 0.89267,-12.34026 1.38251,-12.8248 0.80637,-0.79766 20.242037,6.79619 91.140601,35.61021 l 21.25,8.63625 0,7.27132 c 0,14.97326 6.54111,27.23182 16.57561,31.06402 5.72178,2.1852 16.31317,1.5426 21.92439,-1.3302 13.69405,-7.011 22.39887,-23.4769 44.01174,-83.25182 8.55344,-23.65633 34.59488,-101.22671 34.13694,-101.68466 -0.52603,-0.52602 -125.80469,-25.50802 -126.05802,-25.13741 -0.12108,0.17714 -9.36771,25.52207 -20.54807,56.32207 -24.677034,67.98102 -24.757554,68.18695 -27.381334,70.02471 -1.15845,0.81141 -3.70602,1.47529 -5.66126,1.47529 -7.63766,0 -11.24253,-6.26362 -8.41214,-14.61645 7.57127,-22.34374 46.861664,-128.42632 48.290884,-130.38355 3.85503,-5.27925 1.86317,-5.5336 81.89681,10.45787 68.31795,13.65056 74.84682,15.12641 77.53276,17.5263 2.34518,2.09541 2.91792,3.41163 2.85808,6.56819 -0.11835,6.24376 -35.57024,110.62599 -51.43696,151.44764 -14.98114,38.54322 -26.83525,54.18102 -46.31016,61.09172 -8.99392,3.1915 -26.79193,3.6244 -35.24976,0.8574 z m 9.33049,-82.51134 c -24.12784,-8.12347 -26.5,-9.56202 -26.5,-16.07047 0,-4.77307 4.49875,-9.36731 9.17262,-9.36731 1.82956,0 13.55981,3.41098 26.06723,7.57995 17.98342,5.99423 23.16119,8.11443 24.75046,10.13486 4.8481,6.16336 0.21012,15.36722 -7.66339,15.20761 -2.1048,-0.0427 -13.72692,-3.41075 -25.82692,-7.48464 z m -47.17311,-17.09905 c -1.19521,-0.25172 -3.33271,-1.61728 -4.75,-3.03457 -3.780191,-3.78019 -3.582441,-9.45246 0.47086,-13.50575 2.71169,-2.7117 3.5386,-2.99242 7.49945,-2.54598 5.21514,0.58782 7.2596,2.04423 9.12112,6.49757 1.14469,2.73846 1.14469,3.76154 0,6.5 -0.74718,1.7875 -2.03361,3.80983 -2.85872,4.49406 -1.76363,1.4625 -6.40461,2.24296 -9.48271,1.59467 z m 87.17311,-15.11302 c -1.1,-0.19334 -11.675,-3.51418 -23.5,-7.37963 -17.41104,-5.69147 -22.02301,-7.58434 -24.25,-9.95287 -5.16159,-5.48961 -2.59898,-13.63809 4.87929,-15.51502 4.12228,-1.03462 48.9845,13.82686 52.12071,17.266 5.82734,6.39023 -0.53812,17.11278 -9.25,15.58152 z M 117.85784,893.3035 c -5.62662,-3.53151 -6.47811,-11.09628 -1.71785,-15.26164 6.60133,-5.77635 17.36476,-1.30584 17.36476,7.21232 0,7.94003 -8.69463,12.41285 -15.64691,8.04932 z m 70.27162,-24.12373 c -25.3137,-7.11483 -26.31988,-7.51603 -28.26037,-11.26853 -3.25807,-6.30041 1.20848,-13.73766 8.25036,-13.73766 3.72773,0 42.01261,10.15157 47.19058,12.51299 6.01496,2.74313 7.47674,10.99453 2.73664,15.44763 -3.89322,3.65749 -7.74678,3.27693 -29.91721,-2.95443 z m -54.84957,-16.56499 c -3.3938,-1.84175 -4.77514,-4.34485 -4.77514,-8.65295 0,-4.3491 2.19136,-7.36627 6.34593,-8.7374 8.08358,-2.66783 16.2432,4.60402 13.72564,12.23229 -1.94199,5.88428 -9.35313,8.38337 -15.29643,5.15806 z"
         style="fill:#324b90;fill-opacity:1;stroke:#f4f4f4;stroke-width:30;stroke-miterlimit:4;stroke-dasharray:none;stroke-opacity:1" />
      <path
         inkscape:connector-curvature="0"
         id="path4151"
         d="m 111.42857,775.21935 165.71429,37.14285 -72.85715,201.4286 -67.14285,18.5714 -92.857146,-50 z"
         style="fill:#f4f4f4;fill-opacity:1;fill-rule:evenodd;stroke:none;stroke-width:1px;stroke-linecap:butt;stroke-linejoin:miter;stroke-opacity:1" />
      <path
         style="fill:#213260;fill-opacity:1"
         d="m 142.67426,1032.1227 c -10.71096,-3.5042 -97.993304,-43.64943 -103.182014,-47.45829 -6.27253,-4.60446 -12.4368,-13.8673 -15.130697,-22.73638 -1.81855,-5.98718 -2.05151,-8.69271 -1.62991,-18.92943 0.27054,-6.5691 0.89267,-12.34026 1.38251,-12.8248 0.80637,-0.79766 20.242037,6.79619 91.140601,35.61021 l 21.25,8.63625 0,7.27132 c 0,14.97326 6.54111,27.23182 16.57561,31.06402 5.72178,2.1852 16.31317,1.5426 21.92439,-1.3302 13.69405,-7.011 22.39887,-23.4769 44.01174,-83.25182 8.55344,-23.65633 34.59488,-101.22671 34.13694,-101.68466 -0.52603,-0.52602 -125.80469,-25.50802 -126.05802,-25.13741 -0.12108,0.17714 -9.36771,25.52207 -20.54807,56.32207 -24.677034,67.98102 -24.757554,68.18695 -27.381334,70.02471 -1.15845,0.81141 -3.70602,1.47529 -5.66126,1.47529 -7.63766,0 -11.24253,-6.26362 -8.41214,-14.61645 7.57127,-22.34374 46.861664,-128.42632 48.290884,-130.38355 3.85503,-5.27925 1.86317,-5.5336 81.89681,10.45787 68.31795,13.65056 74.84682,15.12641 77.53276,17.5263 2.34518,2.09541 2.91792,3.41163 2.85808,6.56819 -0.11835,6.24376 -35.57024,110.62599 -51.43696,151.44764 -14.98114,38.54322 -26.83525,54.18102 -46.31016,61.09172 -8.99392,3.1915 -26.79193,3.6244 -35.24976,0.8574 z m 9.33049,-82.51134 c -24.12784,-8.12347 -26.5,-9.56202 -26.5,-16.07047 0,-4.77307 4.49875,-9.36731 9.17262,-9.36731 1.82956,0 13.55981,3.41098 26.06723,7.57995 17.98342,5.99423 23.16119,8.11443 24.75046,10.13486 4.8481,6.16336 0.21012,15.36722 -7.66339,15.20761 -2.1048,-0.0427 -13.72692,-3.41075 -25.82692,-7.48464 z m -47.17311,-17.09905 c -1.19521,-0.25172 -3.33271,-1.61728 -4.75,-3.03457 -3.780191,-3.78019 -3.582441,-9.45246 0.47086,-13.50575 2.71169,-2.7117 3.5386,-2.99242 7.49945,-2.54598 5.21514,0.58782 7.2596,2.04423 9.12112,6.49757 1.14469,2.73846 1.14469,3.76154 0,6.5 -0.74718,1.7875 -2.03361,3.80983 -2.85872,4.49406 -1.76363,1.4625 -6.40461,2.24296 -9.48271,1.59467 z m 87.17311,-15.11302 c -1.1,-0.19334 -11.675,-3.51418 -23.5,-7.37963 -17.41104,-5.69147 -22.02301,-7.58434 -24.25,-9.95287 -5.16159,-5.48961 -2.59898,-13.63809 4.87929,-15.51502 4.12228,-1.03462 48.9845,13.82686 52.12071,17.266 5.82734,6.39023 -0.53812,17.11278 -9.25,15.58152 z M 117.85784,893.3035 c -5.62662,-3.53151 -6.47811,-11.09628 -1.71785,-15.26164 6.60133,-5.77635 17.36476,-1.30584 17.36476,7.21232 0,7.94003 -8.69463,12.41285 -15.64691,8.04932 z m 70.27162,-24.12373 c -25.3137,-7.11483 -26.31988,-7.51603 -28.26037,-11.26853 -3.25807,-6.30041 1.20848,-13.73766 8.25036,-13.73766 3.72773,0 42.01261,10.15157 47.19058,12.51299 6.01496,2.74313 7.47674,10.99453 2.73664,15.44763 -3.89322,3.65749 -7.74678,3.27693 -29.91721,-2.95443 z m -54.84957,-16.56499 c -3.3938,-1.84175 -4.77514,-4.34485 -4.77514,-8.65295 0,-4.3491 2.19136,-7.36627 6.34593,-8.7374 8.08358,-2.66783 16.2432,4.60402 13.72564,12.23229 -1.94199,5.88428 -9.35313,8.38337 -15.29643,5.15806 z"
         id="path4149"
         inkscape:connector-curvature="0" />
    </g>
  </g>
</svg>
