<?xml version="1.0" encoding="UTF-8" standalone="no"?>
<!-- Created with Inkscape (http://www.inkscape.org/) -->

<svg
   xmlns:dc="http://purl.org/dc/elements/1.1/"
   xmlns:cc="http://creativecommons.org/ns#"
   xmlns:rdf="http://www.w3.org/1999/02/22-rdf-syntax-ns#"
   xmlns:svg="http://www.w3.org/2000/svg"
   xmlns="http://www.w3.org/2000/svg"
   xmlns:sodipodi="http://sodipodi.sourceforge.net/DTD/sodipodi-0.dtd"
   xmlns:inkscape="http://www.inkscape.org/namespaces/inkscape"
   width="84.251015mm"
   height="79.302574mm"
   viewBox="0 0 298.52721 280.99337"
   id="svg2"
   version="1.1"
   inkscape:version="0.91 r13725"
   sodipodi:docname="stock-icon.svg">
  <defs
     id="defs4" />
  <sodipodi:namedview
     id="base"
     pagecolor="#ffffff"
     bordercolor="#666666"
     borderopacity="1.0"
     inkscape:pageopacity="0.0"
     inkscape:pageshadow="2"
     inkscape:zoom="1.4"
     inkscape:cx="44.530726"
     inkscape:cy="81.482058"
     inkscape:document-units="px"
     inkscape:current-layer="layer1"
     showgrid="false"
     borderlayer="false"
     fit-margin-top="0"
     fit-margin-left="0"
     fit-margin-right="0"
     fit-margin-bottom="0"
     inkscape:window-width="1440"
     inkscape:window-height="797"
     inkscape:window-x="0"
     inkscape:window-y="0"
     inkscape:window-maximized="1" />
  <metadata
     id="metadata7">
    <rdf:RDF>
      <cc:Work
         rdf:about="">
        <dc:format>image/svg+xml</dc:format>
        <dc:type
           rdf:resource="http://purl.org/dc/dcmitype/StillImage" />
        <dc:title></dc:title>
      </cc:Work>
    </rdf:RDF>
  </metadata>
  <g
     inkscape:label="Vrstva 1"
     inkscape:groupmode="layer"
     id="layer1"
     transform="translate(-44.961675,-711.81942)">
    <path
       inkscape:connector-curvature="0"
       id="path4149"
       d="m 162.64888,976.35557 c -20.44898,-6.5618 -29.85868,-30.489 -19.75991,-50.24596 6.38941,-12.50006 17.94882,-19.01327 31.96437,-18.01046 12.098,0.86561 22.39957,8.12606 27.7622,19.56655 2.30791,4.92367 2.66961,6.98537 2.66599,15.19647 -0.004,8.2966 -0.34699,10.1983 -2.71029,15.0126 -7.47339,15.2239 -24.91305,23.2971 -39.92236,18.4808 z m 17.68963,-20.1199 c 8.27715,-5.4234 8.59598,-19.571 0.56985,-25.28614 -4.58479,-3.26466 -9.03953,-3.66003 -14.42034,-1.27984 -11.32051,5.00758 -11.4897,21.53938 -0.27859,27.22128 4.56284,2.3125 9.98328,2.0611 14.12908,-0.6553 z m 34.31815,-23.5958 c -0.84835,-3.45272 -1.84497,-6.95267 -2.21472,-7.77767 -0.55223,-1.23216 8.21245,-3.98139 49.08576,-15.39681 27.36691,-7.64324 52.56168,-14.69645 55.98837,-15.6738 l 6.23035,-1.77698 2.01965,6.78161 c 1.11081,3.72988 2.01965,7.21588 2.01965,7.74665 0,0.53078 -24.56243,7.82325 -54.58318,16.2055 -30.02076,8.38224 -55.12774,15.4494 -55.79331,15.7048 -0.78221,0.3002 -1.75555,-1.7555 -2.75257,-5.8133 z m -16.37094,-26.37824 c -1.65,-1.3805 -5.00437,-3.55233 -7.45416,-4.82627 l -4.45417,-2.31627 -5.76421,-22.32673 c -3.17032,-12.2797 -5.6013,-22.48966 -5.40217,-22.68878 0.56093,-0.56093 138.93931,-39.21011 139.25532,-38.89411 0.15366,0.15367 3.58223,13.0759 7.61903,28.71606 4.86214,18.83787 6.97858,28.65324 6.27,29.07826 -0.76746,0.46035 -92.72127,26.35178 -125.56964,35.35665 -0.825,0.22616 -2.85,-0.7183 -4.5,-2.09881 z m -44.99099,-6.64943 c -0.67347,-1.96593 -40.50902,-157.49333 -40.50902,-158.15681 0,-0.32625 -3.46288,-0.59319 -7.69528,-0.59319 -7.03234,0 -7.94257,0.23691 -10.56566,2.75 -2.84208,2.72288 -3.00373,2.75 -16.391307,2.75 l -13.52092,0 -2.41341,-2.80576 c -3.54167,-4.11744 -3.32636,-9.93514 0.50966,-13.77116 2.90679,-2.90679 2.9901,-2.92308 14.95294,-2.92308 11.283597,0 17.123977,1.07794 17.123977,3.16051 0,0.46172 6.94468,0.83949 15.43261,0.83949 13.83117,0 15.48706,0.1816 15.95733,1.75 2.19539,7.32196 41.61007,162.2645 41.61007,163.57281 0,1.09865 -0.81899,1.67719 -2.37427,1.67719 -1.30585,0 -4.28743,0.675 -6.62573,1.5 -5.12753,1.8091 -4.9595,1.80145 -5.49099,0.25 z m 18.48343,-57 c -0.004,-0.1375 -3.3214,-13.14762 -7.37165,-28.91139 l -7.3641,-28.66139 23.62166,-6.62834 c 12.99191,-3.64559 33.74665,-9.48152 46.12165,-12.96874 12.375,-3.48721 22.78005,-6.05683 23.12233,-5.71027 1.25343,1.26912 14.92966,56.47635 14.16608,57.18462 -0.69538,0.64502 -90.08083,25.94551 -91.66427,25.94551 -0.34328,0 -0.62754,-0.1125 -0.6317,-0.25 z"
       style="fill:#000000;stroke:#f4f4f4;stroke-width:30;stroke-miterlimit:4;stroke-dasharray:none;stroke-opacity:1" />
    <path
       style="fill:#000000;stroke:none;stroke-width:16;stroke-miterlimit:4;stroke-dasharray:none;stroke-opacity:1"
       d="m 162.64888,976.35557 c -20.44898,-6.5618 -29.85868,-30.489 -19.75991,-50.24596 6.38941,-12.50006 17.94882,-19.01327 31.96437,-18.01046 12.098,0.86561 22.39957,8.12606 27.7622,19.56655 2.30791,4.92367 2.66961,6.98537 2.66599,15.19647 -0.004,8.2966 -0.34699,10.1983 -2.71029,15.0126 -7.47339,15.2239 -24.91305,23.2971 -39.92236,18.4808 z m 17.68963,-20.1199 c 8.27715,-5.4234 8.59598,-19.571 0.56985,-25.28614 -4.58479,-3.26466 -9.03953,-3.66003 -14.42034,-1.27984 -11.32051,5.00758 -11.4897,21.53938 -0.27859,27.22128 4.56284,2.3125 9.98328,2.0611 14.12908,-0.6553 z m 34.31815,-23.5958 c -0.84835,-3.45272 -1.84497,-6.95267 -2.21472,-7.77767 -0.55223,-1.23216 8.21245,-3.98139 49.08576,-15.39681 27.36691,-7.64324 52.56168,-14.69645 55.98837,-15.6738 l 6.23035,-1.77698 2.01965,6.78161 c 1.11081,3.72988 2.01965,7.21588 2.01965,7.74665 0,0.53078 -24.56243,7.82325 -54.58318,16.2055 -30.02076,8.38224 -55.12774,15.4494 -55.79331,15.7048 -0.78221,0.3002 -1.75555,-1.7555 -2.75257,-5.8133 z m -16.37094,-26.37824 c -1.65,-1.3805 -5.00437,-3.55233 -7.45416,-4.82627 l -4.45417,-2.31627 -5.76421,-22.32673 c -3.17032,-12.2797 -5.6013,-22.48966 -5.40217,-22.68878 0.56093,-0.56093 138.93931,-39.21011 139.25532,-38.89411 0.15366,0.15367 3.58223,13.0759 7.61903,28.71606 4.86214,18.83787 6.97858,28.65324 6.27,29.07826 -0.76746,0.46035 -92.72127,26.35178 -125.56964,35.35665 -0.825,0.22616 -2.85,-0.7183 -4.5,-2.09881 z m -44.99099,-6.64943 c -0.67347,-1.96593 -40.50902,-157.49333 -40.50902,-158.15681 0,-0.32625 -3.46288,-0.59319 -7.69528,-0.59319 -7.032337,0 -7.942567,0.23691 -10.565657,2.75 -2.84208,2.72288 -3.00373,2.75 -16.39131,2.75 l -13.52092,0 -2.41341,-2.80576 c -3.54167,-4.11744 -3.32636,-9.93514 0.50966,-13.77116 2.90679,-2.90679 2.9901,-2.92308 14.95294,-2.92308 11.2836,0 17.12398,1.07794 17.12398,3.16051 0,0.46172 6.944677,0.83949 15.432607,0.83949 13.83117,0 15.48706,0.1816 15.95733,1.75 2.19539,7.32196 41.61007,162.2645 41.61007,163.57281 0,1.09865 -0.81899,1.67719 -2.37427,1.67719 -1.30585,0 -4.28743,0.675 -6.62573,1.5 -5.12753,1.8091 -4.9595,1.80145 -5.49099,0.25 z m 18.48343,-57 c -0.004,-0.1375 -3.3214,-13.14762 -7.37165,-28.91139 l -7.3641,-28.66139 23.62166,-6.62834 c 12.99191,-3.64559 33.74665,-9.48152 46.12165,-12.96874 12.375,-3.48721 22.78005,-6.05683 23.12233,-5.71027 1.25343,1.26912 14.92966,56.47635 14.16608,57.18462 -0.69538,0.64502 -90.08083,25.94551 -91.66427,25.94551 -0.34328,0 -0.62754,-0.1125 -0.6317,-0.25 z"
       id="path3347"
       inkscape:connector-curvature="0" />
  </g>
</svg>
