<?xml version="1.0" encoding="UTF-8" standalone="no"?>
<!-- Created with Inkscape (http://www.inkscape.org/) -->

<svg
   xmlns:dc="http://purl.org/dc/elements/1.1/"
   xmlns:cc="http://creativecommons.org/ns#"
   xmlns:rdf="http://www.w3.org/1999/02/22-rdf-syntax-ns#"
   xmlns:svg="http://www.w3.org/2000/svg"
   xmlns="http://www.w3.org/2000/svg"
   xmlns:sodipodi="http://sodipodi.sourceforge.net/DTD/sodipodi-0.dtd"
   xmlns:inkscape="http://www.inkscape.org/namespaces/inkscape"
   width="203.55013mm"
   height="203.37947mm"
   viewBox="0 0 721.2406 720.63592"
   id="svg4215"
   version="1.1"
   inkscape:version="0.91 r13725"
   sodipodi:docname="vyprodej-icon.svg">
  <defs
     id="defs4217" />
  <sodipodi:namedview
     id="base"
     pagecolor="#ffffff"
     bordercolor="#666666"
     borderopacity="1.0"
     inkscape:pageopacity="0.0"
     inkscape:pageshadow="2"
     inkscape:zoom="0.35"
     inkscape:cx="-260.70035"
     inkscape:cy="517.13506"
     inkscape:document-units="px"
     inkscape:current-layer="layer1"
     showgrid="false"
     fit-margin-top="0"
     fit-margin-left="0"
     fit-margin-right="0"
     fit-margin-bottom="0"
     inkscape:window-width="1440"
     inkscape:window-height="797"
     inkscape:window-x="0"
     inkscape:window-y="0"
     inkscape:window-maximized="1" />
  <metadata
     id="metadata4220">
    <rdf:RDF>
      <cc:Work
         rdf:about="">
        <dc:format>image/svg+xml</dc:format>
        <dc:type
           rdf:resource="http://purl.org/dc/dcmitype/StillImage" />
        <dc:title></dc:title>
      </cc:Work>
    </rdf:RDF>
  </metadata>
  <g
     inkscape:label="Vrstva 1"
     inkscape:groupmode="layer"
     id="layer1"
     transform="translate(-29.986064,-328.86133)">
    <path
       id="path4781"
       d="m 163.04102,378.86133 0,191.48828 0,191.48633 -41.53125,0.26367 -41.533208,0.26172 153.945318,119.1875 c 84.66938,65.55213 154.40956,119.08707 154.97851,118.96677 0.56882,-0.1202 71.07767,-53.75364 156.68555,-119.18552 l 155.65039,-118.96875 -46.71094,-0.26172 -46.70898,-0.26172 0,-191.48828 0,-191.48828 -222.38868,0 -222.38671,0 z m 155.78125,28.89648 c 25.29781,0 44.9511,6.17562 58.95898,18.52735 14.21695,12.35173 21.32422,27.05269 21.32422,44.10156 0,17.04886 -7.10727,31.83563 -21.32422,44.36133 -14.00788,12.52569 -33.66117,18.78906 -58.95898,18.78906 -25.29782,0 -45.05453,-6.17562 -59.27149,-18.52734 -14.00788,-12.35173 -21.01172,-27.0527 -21.01172,-44.10157 0,-17.04886 7.00384,-31.83563 21.01172,-44.36132 14.21696,-12.5257 33.97367,-18.78907 59.27149,-18.78907 z m 166.83984,1.56641 37.00586,2.60937 c 0,15.48316 -40.76823,70.54304 -122.30664,165.18164 -81.53842,94.6386 -122.3086,151.96048 -122.3086,171.9668 l -37.00585,-2.60937 c 0,-16.8749 40.77018,-72.80448 122.30859,-167.79102 81.53841,-94.98654 122.30664,-151.43872 122.30664,-169.35742 z m -166.83984,20.61523 c -13.79881,0 -24.67047,4.17493 -32.61524,12.52539 -7.73569,8.1765 -11.60351,17.83089 -11.60351,28.96485 0,10.95998 3.86782,20.44083 11.60351,28.44336 7.7357,8.00253 18.60735,12.0039 32.61524,12.0039 14.00788,0 24.77415,-4.00137 32.30078,-12.0039 7.73569,-8.00253 11.60351,-17.48338 11.60351,-28.44336 0,-11.13396 -3.86782,-20.78835 -11.60351,-28.96485 -7.7357,-8.35046 -18.50198,-12.52539 -32.30078,-12.52539 z M 448.3418,626.17383 c 25.29781,0 44.9511,6.17561 58.95898,18.52734 14.21696,12.35173 21.32617,27.0527 21.32617,44.10156 0,17.04887 -7.10921,31.83564 -21.32617,44.36133 -14.00788,12.35173 -33.66117,18.52735 -58.95898,18.52735 -25.29782,0 -45.05453,-6.08787 -59.27149,-18.26563 -14.00788,-12.35173 -21.01172,-27.0527 -21.01172,-44.10156 0,-17.04887 7.00384,-31.83563 21.01172,-44.36133 14.21696,-12.5257 33.97367,-18.78906 59.27149,-18.78906 z m 0,22.18164 c -13.58974,0 -24.35602,4.17492 -32.30078,12.52539 -7.7357,8.1765 -11.60352,17.83284 -11.60352,28.9668 0,10.95998 3.76244,20.44083 11.28906,28.44336 7.7357,8.00252 18.60736,12.0039 32.61524,12.0039 14.00788,0 24.88149,-4.00138 32.61718,-12.0039 7.7357,-8.00253 11.60352,-17.48338 11.60352,-28.44336 0,-11.13396 -3.9732,-20.7903 -11.91797,-28.9668 -7.73569,-8.35047 -18.50392,-12.52539 -32.30273,-12.52539 z"
       style="fill:#ff6fbf;fill-opacity:1;stroke:#f2f2f2;stroke-width:100;stroke-linejoin:round;stroke-miterlimit:4;stroke-dasharray:none;stroke-opacity:1"
       inkscape:connector-curvature="0" />
    <path
       style="fill:#ae0061;fill-opacity:1"
       d="m 163.04102,378.86133 0,191.48828 0,191.48633 -41.53125,0.26367 -41.533208,0.26172 153.945318,119.1875 c 84.66938,65.55213 154.40956,119.08707 154.97851,118.96677 0.56882,-0.1202 71.07767,-53.75364 156.68555,-119.18552 l 155.65039,-118.96875 -46.71094,-0.26172 -46.70898,-0.26172 0,-191.48828 0,-191.48828 -222.38868,0 -222.38671,0 z m 155.78125,28.89648 c 25.29781,0 44.9511,6.17562 58.95898,18.52735 14.21695,12.35173 21.32422,27.05269 21.32422,44.10156 0,17.04886 -7.10727,31.83563 -21.32422,44.36133 -14.00788,12.52569 -33.66117,18.78906 -58.95898,18.78906 -25.29782,0 -45.05453,-6.17562 -59.27149,-18.52734 -14.00788,-12.35173 -21.01172,-27.0527 -21.01172,-44.10157 0,-17.04886 7.00384,-31.83563 21.01172,-44.36132 14.21696,-12.5257 33.97367,-18.78907 59.27149,-18.78907 z m 166.83984,1.56641 37.00586,2.60937 c 0,15.48316 -40.76823,70.54304 -122.30664,165.18164 -81.53842,94.6386 -122.3086,151.96048 -122.3086,171.9668 l -37.00585,-2.60937 c 0,-16.8749 40.77018,-72.80448 122.30859,-167.79102 81.53841,-94.98654 122.30664,-151.43872 122.30664,-169.35742 z m -166.83984,20.61523 c -13.79881,0 -24.67047,4.17493 -32.61524,12.52539 -7.73569,8.1765 -11.60351,17.83089 -11.60351,28.96485 0,10.95998 3.86782,20.44083 11.60351,28.44336 7.7357,8.00253 18.60735,12.0039 32.61524,12.0039 14.00788,0 24.77415,-4.00137 32.30078,-12.0039 7.73569,-8.00253 11.60351,-17.48338 11.60351,-28.44336 0,-11.13396 -3.86782,-20.78835 -11.60351,-28.96485 -7.7357,-8.35046 -18.50198,-12.52539 -32.30078,-12.52539 z M 448.3418,626.17383 c 25.29781,0 44.9511,6.17561 58.95898,18.52734 14.21696,12.35173 21.32617,27.0527 21.32617,44.10156 0,17.04887 -7.10921,31.83564 -21.32617,44.36133 -14.00788,12.35173 -33.66117,18.52735 -58.95898,18.52735 -25.29782,0 -45.05453,-6.08787 -59.27149,-18.26563 -14.00788,-12.35173 -21.01172,-27.0527 -21.01172,-44.10156 0,-17.04887 7.00384,-31.83563 21.01172,-44.36133 14.21696,-12.5257 33.97367,-18.78906 59.27149,-18.78906 z m 0,22.18164 c -13.58974,0 -24.35602,4.17492 -32.30078,12.52539 -7.7357,8.1765 -11.60352,17.83284 -11.60352,28.9668 0,10.95998 3.76244,20.44083 11.28906,28.44336 7.7357,8.00252 18.60736,12.0039 32.61524,12.0039 14.00788,0 24.88149,-4.00138 32.61718,-12.0039 7.7357,-8.00253 11.60352,-17.48338 11.60352,-28.44336 0,-11.13396 -3.9732,-20.7903 -11.91797,-28.9668 -7.73569,-8.35047 -18.50392,-12.52539 -32.30273,-12.52539 z"
       id="path4234"
       inkscape:connector-curvature="0" />
  </g>
</svg>
